<svg xmlns="http://www.w3.org/2000/svg" viewBox="0 0 153.06 153.06" width="153.06" height="153.06" role="img" aria-label="Zaio">
  <g fill="currentColor" fill-rule="evenodd">
    <path d="M118.96,0H34.1C15.3,0,0,15.3,0,34.1v84.86c0,18.8,15.3,34.1,34.1,34.1h84.86c18.8,0,34.1-15.3,34.1-34.1V34.1c0-18.8-15.3-34.1-34.1-34.1ZM141.81,118.96c0,12.6-10.25,22.85-22.85,22.85H34.1c-12.6,0-22.85-10.25-22.85-22.85V34.1c0-12.6,10.25-22.85,22.85-22.85h84.86c12.6,0,22.85,10.25,22.85,22.85v84.86Z"/>
    <path d="M33.34,71l11.2-11.2c.29-.29.46-.69.46-1.11v-12.11c0-.86.7-1.57,1.57-1.57h26.45c.41,0,.82-.17,1.11-.46l11.19-11.19c.98-.98.29-2.67-1.11-2.67h-51.98c-.86,0-1.57.7-1.57,1.57v37.64c0,1.4,1.69,2.09,2.67,1.11Z"/>
    <path d="M119.73,82.07l-11.2,11.2c-.29.29-.46.69-.46,1.11v12.11c0,.86-.7,1.57-1.57,1.57h-26.45c-.41,0-.82.17-1.11.46l-11.19,11.2c-.98.98-.29,2.67,1.11,2.67h51.98c.86,0,1.57-.7,1.57-1.57v-37.64c0-1.4-1.69-2.09-2.67-1.11Z"/>
    <path d="M122.39,41.5v-9.25c0-.86-.7-1.57-1.57-1.57h-9.25c-.41,0-.82.17-1.11.46L31.14,110.47c-.29.29-.46.69-.46,1.11v9.25c0,.86.7,1.57,1.57,1.57h9.25c.41,0,.82-.17,1.11-.46L121.93,42.6c.29-.29.46-.69.46-1.11Z"/>
  </g>
</svg>
